<svg width="40" height="40" viewBox="0 0 40 40" fill="none" xmlns="http://www.w3.org/2000/svg">
<path d="M30 5.00002V5.00002C31.8692 5.00001 32.8038 5.00001 33.5 5.40194C33.9561 5.66524 34.3348 6.04396 34.5981 6.50002C35 7.19617 35 8.13078 35 10L35 14C35 14.4714 35 14.7071 34.8536 14.8536C34.7071 15 34.4714 15 34 15L25 15M30 5.00002V5.00002C28.1308 5.00001 27.1962 5.00001 26.5 5.40194C26.0439 5.66524 25.6652 6.04396 25.4019 6.50002C25 7.19617 25 8.13078 25 10L25 15M30 5.00002L9 5.00001C7.11438 5.00001 6.17157 5.00001 5.58579 5.5858C5 6.17159 5 7.1144 5 9.00001L5 35L10 33.3333L15 35L20 33.3333L25 35L25 15" stroke="#33363F" stroke-width="2"/>
<path d="M11.6666 11.6667L18.3333 11.6667" stroke="#33363F" stroke-width="2" stroke-linecap="round"/>
<path d="M13.3334 18.3333H11.6667" stroke="#33363F" stroke-width="2" stroke-linecap="round"/>
<path d="M11.6666 25L16.6666 25" stroke="#33363F" stroke-width="2" stroke-linecap="round"/>
</svg>
